<svg xmlns="http://www.w3.org/2000/svg" viewBox="0 0 1024 1024">
  <defs>
    <filter id="shadow" width="1.06" height="1.07" x="-.03" y="-.03" color-interpolation-filters="sRGB">
      <feFlood flood-color="#000" flood-opacity=".3" result="flood"/>
      <feComposite in="flood" in2="SourceGraphic" operator="in" result="composite1"/>
      <feGaussianBlur in="composite1" result="blur" stdDeviation="10"/>
      <feOffset dy="10" result="offset"/>
      <feComposite in="SourceGraphic" in2="offset" result="composite2"/>
    </filter>
  </defs>
  <g filter="url(#shadow)">
    <path fill="red" d="M100 724V300c0-115 70-200 200.03-200H724c130 0 200 85 200 200v424c0 115-70 200-200 200H300.03C170 924 100 839 100 724z"/>
    <path fill="#21212f" d="m343.05 592.69 476.52 5.95-101.81 163.17-499.96-53.4z"/>
    <path fill="#fff" d="m293.3 235.54-70.12 19.41C276.2 405.57 346.45 548.24 420.8 701.21l200.26 20.48c-.58-50.4-6.77-112.45-23.16-169.68 50.87-74.59 90.97-166.62 138.82-264.48l-58.32-41.69c-34.55 82.95-69.54 166.74-123.07 245.92-13.52 16.72-136.92 13.45-148.62 2.72-44.93-94.17-87.4-169-113.41-258.94Zm174.92 63.97c-2.25-.01-4.5.1-6.73.36-17.9 2.04-33.52 12.59-44.45 30.32-10.94 17.73-16.22 42.19-12.11 68.33 4.11 26.15 16.78 48.56 32.8 63.22 16.03 14.65 34.37 21.33 52.26 19.29 17.9-2.05 33.52-12.59 44.45-30.32s16.22-42.19 12.1-68.33c-4.1-26.15-16.77-48.56-32.8-63.22-14.01-12.82-29.8-19.53-45.52-19.65zM331.89 566.57 156.3 729.32l29.69 3.06 544.92 56.08L867.7 573.03l-236.06-1.49c2.37 9.03 3.27 16.02 5.09 25.1-.13-.88 182.5 2.33 182.5 2.33l-102.18 160.9-498.6-51.32L342.79 593.3c-3.68-8.91-7.32-17.82-10.9-26.73z"/>
  </g>
</svg>
